<svg width="502" height="502" viewBox="0 0 502 502" fill="none" xmlns="http://www.w3.org/2000/svg">
<g filter="url(#filter0_d_40_311)">
<rect x="60" y="60" width="382" height="382" rx="76" fill="#0A0929"/>
</g>
<mask id="mask0_40_311" style="mask-type:alpha" maskUnits="userSpaceOnUse" x="60" y="60" width="382" height="382">
<rect x="60" y="60" width="382" height="382" fill="#0A0929"/>
</mask>
<g mask="url(#mask0_40_311)">
<g filter="url(#filter1_d_40_311)">
<path d="M321.568 226.25C324.683 226.25 327.515 228.058 328.826 230.884L362.393 303.266C364.309 307.397 362.395 312.292 358.185 314.028L330.067 325.619C326.048 327.276 321.442 325.42 319.693 321.441L282.805 237.468C280.483 232.181 284.355 226.25 290.129 226.25L321.568 226.25Z" fill="#3A5AFF"/>
<g filter="url(#filter2_d_40_311)">
<path d="M185.788 301.903C187.308 300.06 189.572 298.993 191.96 298.993L358.475 298.993C365.075 298.993 368.836 306.533 364.866 311.805L342.233 341.863C340.722 343.871 338.355 345.051 335.842 345.051L167.169 345.051C160.405 345.051 156.694 337.179 160.997 331.961L185.788 301.903Z" fill="#59B9FF"/>
</g>
<g filter="url(#filter3_d_40_311)">
<path d="M141.244 313.005C139.623 310.344 139.695 306.984 141.429 304.395L238.949 158.722C241.445 154.993 246.52 154.046 250.193 156.624L275.914 174.678C279.487 177.186 280.39 182.097 277.941 185.712L172.125 341.95C168.859 346.773 161.697 346.599 158.668 341.624L141.244 313.005Z" fill="white"/>
</g>
<rect x="253.596" y="141.144" width="26.0103" height="73.3993" rx="13.0051" transform="rotate(-15 253.596 141.144)" fill="white"/>
<rect width="26.0103" height="73.4821" rx="13.0051" transform="matrix(-0.258819 -0.965926 -0.965926 0.258819 285.117 159.446)" fill="white"/>
</g>
</g>
<defs>
<filter id="filter0_d_40_311" x="0" y="0" width="502" height="502" filterUnits="userSpaceOnUse" color-interpolation-filters="sRGB">
<feFlood flood-opacity="0" result="BackgroundImageFix"/>
<feColorMatrix in="SourceAlpha" type="matrix" values="0 0 0 0 0 0 0 0 0 0 0 0 0 0 0 0 0 0 127 0" result="hardAlpha"/>
<feOffset/>
<feGaussianBlur stdDeviation="30"/>
<feComposite in2="hardAlpha" operator="out"/>
<feColorMatrix type="matrix" values="0 0 0 0 0.0392157 0 0 0 0 0.0352941 0 0 0 0 0.160784 0 0 0 0.2 0"/>
<feBlend mode="normal" in2="BackgroundImageFix" result="effect1_dropShadow_40_311"/>
<feBlend mode="normal" in="SourceGraphic" in2="effect1_dropShadow_40_311" result="shape"/>
</filter>
<filter id="filter1_d_40_311" x="120.077" y="117.242" width="266.413" height="248.222" filterUnits="userSpaceOnUse" color-interpolation-filters="sRGB">
<feFlood flood-opacity="0" result="BackgroundImageFix"/>
<feColorMatrix in="SourceAlpha" type="matrix" values="0 0 0 0 0 0 0 0 0 0 0 0 0 0 0 0 0 0 127 0" result="hardAlpha"/>
<feOffset/>
<feGaussianBlur stdDeviation="10"/>
<feComposite in2="hardAlpha" operator="out"/>
<feColorMatrix type="matrix" values="0 0 0 0 0.945833 0 0 0 0 0.945833 0 0 0 0 0.945833 0 0 0 0.25 0"/>
<feBlend mode="normal" in2="BackgroundImageFix" result="effect1_dropShadow_40_311"/>
<feBlend mode="normal" in="SourceGraphic" in2="effect1_dropShadow_40_311" result="shape"/>
</filter>
<filter id="filter2_d_40_311" x="119.154" y="258.993" width="287.336" height="126.058" filterUnits="userSpaceOnUse" color-interpolation-filters="sRGB">
<feFlood flood-opacity="0" result="BackgroundImageFix"/>
<feColorMatrix in="SourceAlpha" type="matrix" values="0 0 0 0 0 0 0 0 0 0 0 0 0 0 0 0 0 0 127 0" result="hardAlpha"/>
<feOffset/>
<feGaussianBlur stdDeviation="20"/>
<feColorMatrix type="matrix" values="0 0 0 0 0 0 0 0 0 0 0 0 0 0 0 0 0 0 0.25 0"/>
<feBlend mode="normal" in2="BackgroundImageFix" result="effect1_dropShadow_40_311"/>
<feBlend mode="normal" in="SourceGraphic" in2="effect1_dropShadow_40_311" result="shape"/>
</filter>
<filter id="filter3_d_40_311" x="100.077" y="115.172" width="219.242" height="270.292" filterUnits="userSpaceOnUse" color-interpolation-filters="sRGB">
<feFlood flood-opacity="0" result="BackgroundImageFix"/>
<feColorMatrix in="SourceAlpha" type="matrix" values="0 0 0 0 0 0 0 0 0 0 0 0 0 0 0 0 0 0 127 0" result="hardAlpha"/>
<feOffset/>
<feGaussianBlur stdDeviation="20"/>
<feColorMatrix type="matrix" values="0 0 0 0 0 0 0 0 0 0 0 0 0 0 0 0 0 0 0.25 0"/>
<feBlend mode="normal" in2="BackgroundImageFix" result="effect1_dropShadow_40_311"/>
<feBlend mode="normal" in="SourceGraphic" in2="effect1_dropShadow_40_311" result="shape"/>
</filter>
</defs>
</svg>
